<?xml version="1.0" encoding="UTF-8"?>
<svg width="604px" height="261px" viewBox="0 0 604 261" version="1.1" xmlns="http://www.w3.org/2000/svg" xmlns:xlink="http://www.w3.org/1999/xlink">
    <!-- Generator: Sketch 51.2 (57519) - http://www.bohemiancoding.com/sketch -->
    <title>Artboard 26</title>
    <desc>Created with Sketch.</desc>
    <defs></defs>
    <g id="Artboard-26" stroke="none" stroke-width="1" fill="none" fill-rule="evenodd">
        <g id="jersey-Front-Sleeves-base" transform="translate(27.000000, 22.000000)" fill="#2C6BB4" fill-rule="nonzero">
            <path d="M499,2.5 C499,1.7 498.9,0.8 499.1,-1.42108547e-14 C499.7,0.6 500.3,1.2 500.9,1.9 C503.3,4.9 506.5,7.4 509.5,9.9 C512.5,12.5 515.1,15.6 517.3,19 C520.7,24.3 523.9,29.7 526.9,35.2 C530.5,42 533.8,48.9 537,55.8 C539,60.2 540.9,64.6 542.4,69.2 C544.8,76.4 547.2,83.7 549.2,91 C550.8,96.5 551.9,102.1 552.9,107.7 C553.9,113.1 554.4,118.5 555.2,124 C556,130 556.8,136 557.6,142 C558.3,146.9 559,151.7 559.7,156.6 C560.4,161.2 561.2,165.7 561.8,170.3 C562.1,172.1 562.1,174 562.4,175.9 C562.8,178.9 563.7,181.8 563.8,184.7 C563.8,187.3 564.8,189.8 564,192.4 C565.7,194.4 564.4,197 565,199.2 C565.7,201.9 566.2,204.7 566.9,207.4 C567.3,208.5 567.8,209.7 568.2,210.9 C568.2,211.8 568.2,212.6 568.2,213.5 C567.3,214.2 566.5,215 565.5,215.4 C562.1,216.6 558.7,217.8 555.2,218.7 C550.3,220 545.2,221.1 540.2,222.1 C535.6,223 531.1,223.7 526.5,224.3 C521.6,225 516.8,225.5 512,226 C507.2,226.6 502.5,227.1 497.7,227.6 C494,228 490.2,228.3 486.4,228.6 C479.9,229.2 473.4,229.7 466.9,230.2 C464.1,230.5 463.5,229.8 463.1,226.7 C462.7,224.1 462.9,221.5 462.7,218.9 C462.4,214.7 462.1,210.6 461.6,206.5 C461.2,203.7 460.5,201 459.9,198.3 C459.7,198.3 459.5,198.3 459.3,198.3 C459.2,198.3 459.2,198.4 459.2,198.4 C458.3,194.5 456.9,188.3 456.3,185.1 C455.3,180.3 456.8,173.6 459.1,157 C461.4,140.4 464.9,127.9 467.2,119.4 C469.6,110.9 480.7,74 482.7,65.3 C484.7,56.6 493.7,27.3 496.8,17.4 C499.9,7.4 499,4.2 499,2.5 Z M26.4,221.8 C19,220.3 11.7,218.1 4.4,216 C2.8,215.6 1.4,214.4 -2.84217094e-13,213.5 C-2.84217094e-13,212.6 -2.84217094e-13,211.8 -2.84217094e-13,210.9 C0.2,210.6 0.5,210.3 0.6,210 C1.9,203.8 4.1,197.7 3.7,191.2 C3.6,189.2 4,187.1 4.3,185.1 C4.8,181.8 5.4,178.6 5.9,175.4 C6.8,168.5 7.7,161.5 8.6,154.6 C10.3,142.3 12,130 13.8,117.7 C14.6,112 15.4,106.3 16.6,100.6 C17.6,95.3 19.1,90 20.5,84.8 C21.5,81.1 22.6,77.4 23.9,73.9 C26.5,67.1 29.1,60.4 31.9,53.7 C33,50.9 34.5,48.2 35.9,45.4 C38,41.3 39.9,37.2 42,33.3 C44.3,29.3 46.6,25.4 49.1,21.6 C51.1,18.6 53.1,15.5 55.5,12.9 C58.9,9.2 62.8,5.9 66.5,2.5 C66.6,2.4 66.8,2.2 66.9,2.1 C67.7,7.6 69.8,15.1 71.4,20.6 C73.7,28.1 76.8,37.4 83.7,61.9 C90.6,86.4 98.1,110.2 101.5,121 C104.9,131.8 107,148.4 109,159.6 C111,170.8 109,196.9 109,196.9 C108.5,200.1 106.8,202.3 106.9,205.3 C106.9,208.3 106.2,211.3 106,214.4 C105.7,218.4 105.6,222.5 105.3,226.5 C105.1,228.7 104.3,229.9 102.7,230 C101.1,230.1 99.4,230.1 97.8,230 C92.3,229.5 86.9,228.9 81.5,228.4 C76.6,227.9 71.7,227.6 66.8,227 C59.7,226.3 52.5,225.4 45.4,224.5 C39.1,223.7 32.7,223.1 26.4,221.8 Z" id="Combined-Shape"></path>
        </g>
    </g>
</svg>