<?xml version="1.0" encoding="UTF-8"?>
<svg width="568px" height="281px" viewBox="0 0 568 281" version="1.1" xmlns="http://www.w3.org/2000/svg" xmlns:xlink="http://www.w3.org/1999/xlink">
    <!-- Generator: Sketch 51.2 (57519) - http://www.bohemiancoding.com/sketch -->
    <title>Artboard 26 Copy</title>
    <desc>Created with Sketch.</desc>
    <defs></defs>
    <g id="Artboard-26-Copy" stroke="none" stroke-width="1" fill="none" fill-rule="evenodd">
        <g id="jersey-back-arms" transform="translate(22.000000, 17.000000)" fill="#2C6BB4" fill-rule="nonzero">
            <path d="M463.6,9.1 C464.5,7.7 464.4,1.5 464.2,0.5 C473,4.8 473.6,8.2 486.3,27.3 C500.6,48.8 506,73.1 509.1,98.3 C512.2,124.4 516.9,150.3 520.4,176.4 C522.5,192 523.5,207.8 525.1,223.8 C516.6,225.5 509,226.9 501.4,228.5 C478.1,233.3 454.8,238.3 431.5,243 C430.7,243.2 429.4,243.4 428.8,243.7 C428.3,236.2 428.6,228.4 428.5,226.1 C428.4,223.4 426.4,223.5 426.2,221.3 C426,219.1 428,221 428,218 C428,215 427,182.3 427.8,170 C428.7,157.7 436.2,136.6 440.1,124.3 C444,112 444.2,102.4 446.6,87.2 C449.1,72 451.7,44.9 453.4,38.6 C455.1,32.4 462.6,10.6 463.6,9.1 Z M75,234.8 C51.4,229.8 27.8,224.8 4.1,219.8 C3.1,219.6 2.2,219.2 0.9,218.8 C1.2,217.4 1.5,216.2 1.6,214.9 C4.4,186.6 17.7,161.2 23.3,133.8 C26.6,117.9 28.1,101.6 30.1,85.5 C32.1,70 35.7,55.1 43.7,41.5 C49.6,31.5 54.7,20.9 61.1,11.3 C62.5,9.3 64.3,7.5 66.3,5.9 C66.3,7.4 67.2,9.4 67.1,11.7 C67,18.9 70.6,29.4 72.9,34.4 C75.2,39.4 77.9,54.9 78.9,63.1 C79.9,71.3 84.9,112.6 86.6,119.6 C88.3,126.6 98.9,152.1 100.1,162.1 C101.3,172.1 100.9,221.4 100.9,221.4 C100,226.8 99.5,232.6 98.4,239.3 C91.5,238 82.6,236.4 75,234.8 Z" id="Combined-Shape"></path>
        </g>
    </g>
</svg>