<?xml version="1.0" encoding="utf-8"?>
<!-- Generator: Adobe Illustrator 21.0.0, SVG Export Plug-In . SVG Version: 6.00 Build 0)  -->
<svg version="1.1" id="Layer_1" xmlns="http://www.w3.org/2000/svg" xmlns:xlink="http://www.w3.org/1999/xlink" x="0px" y="0px"
	 viewBox="0 0 524.2 715.3" style="enable-background:new 0 0 524.2 715.3;" xml:space="preserve">
<path d="M446.5,688.3c3.4-2.3,4.6-5.7,3.5-10.4c-2.5-10.8-4-21.9-5.9-32.8c-2.5-14.2-4.8-28.5-7.8-42.6c-5.8-27.2-14-54-17.6-81.4
	c-4.8-36.4-6.4-73.3-8.6-110c-0.8-13.9-1.1-28.1,1.3-41.7c2.7-15.4,8.6-30.3,12.9-45.5c0.8-2.7,2-4.2,4.2-5.1
	c-0.5-7.5,0-15.3-0.1-17.6c-0.2-2.7-2.1-2.5-2.3-4.8s1.8-0.3,1.8-3.3s-1-35.8-0.2-48c0.8-12.3,8.3-33.3,12.3-45.7
	c3.9-12.3,4.1-21.9,6.5-37.1c2.4-15.2,5.1-42.3,6.8-48.6c1.7-6.3,9.2-28,10.2-29.5c1-1.4,0.1-7.7,0-8.5c-3.9-1.9-9.5-4-18.6-7.8
	c-14.4-6-28.5-12.8-42.6-19.5c-9.3-4.4-18.4-9.3-27.4-14.3c-5.7-3.2-11-7-16.5-10.5c-2.3-1.5-4.9-2.6-7.2-4.2
	c-3.4-2.4-8.3-4.3-9.8-7.7c-4-9.2-11.2-11.7-20-11.7c-8.2,0-16.3,0.6-24.5,0.7c-27.7,0.1-55.3,0.2-83-0.2
	c-8.1-0.1-13.2,3.3-16.5,10.3c-1.8,3.9-4.7,6.2-9.1,6.9c-1.6,0.2-3.7,0.7-4.5,1.8c-3.9,6-10.3,7.6-16.1,10.2
	c-9.6,4.2-19.5,7.7-28.9,12.4c-22.3,11.2-44.4,22.7-66.4,34.4c-2.4,1.3-4.8,2.7-7,4.4c0,1.6,0,3.5-0.1,5.8
	c-0.2,7.2,3.3,17.7,5.7,22.7c2.3,5,5,20.5,6,28.7s6,49.5,7.7,56.5c1.7,7,12.3,32.5,13.5,42.5c1.2,10,0.8,59.3,0.8,59.3
	c0.4,0,0.9-0.1,1.3-0.1c0.6,2.9,1.7,5.8,1.9,8.7c0.8,19.9,6.3,39.4,4.8,59.5c-1.2,16.4-0.6,32.9-1.6,49.3
	c-1.4,21.9-3.4,43.7-5.6,65.6c-2.2,21.3-4.1,42.7-7.8,63.8c-3.2,18.7-7.8,37-7.6,56.2c0.1,8.1-0.4,16.3-1.5,24.4
	c-1.4,10.2-3.7,20.2-5.6,30.3c-2,10.5-4.1,21.1-5.7,31.7c-0.3,1.7,1,4.8,2.4,5.4c28.6,12.4,58.3,21.1,89.6,22.5
	c69.8,3.1,139.6,1.6,209.3-3.1c18.4-1.2,36.9-3.8,54.2-10.9C433.7,696.8,440.2,692.5,446.5,688.3z"/>
</svg>
