<?xml version="1.0" encoding="utf-8"?>
<!-- Generator: Adobe Illustrator 21.0.0, SVG Export Plug-In . SVG Version: 6.00 Build 0)  -->
<svg version="1.1" id="Layer_1" xmlns="http://www.w3.org/2000/svg" xmlns:xlink="http://www.w3.org/1999/xlink" x="0px" y="0px"
	 viewBox="0 0 568 717" style="enable-background:new 0 0 568 717;" xml:space="preserve">
<style type="text/css">
	.st0{fill:#FFFFFF;}
</style>
<path class="st0" d="M468.1,708.7c0.4-4.3-0.9-8.1-2.7-11.8c-0.4-0.8-0.6-1.6-0.6-2.5c-0.2-2.5,0.4-5.1-1.5-7.3
	c-0.2-0.3,0.1-1,0.1-1.5c-0.6-3.7-1.1-7.4-1.7-11.1c-0.1-0.9,0-1.8-0.1-2.6c-0.4-3.4-0.7-6.8-1-10.2c-0.4-4.2-0.8-8.4-1.2-12.7
	c-0.5-4.5-1-8.9-1.4-13.4c-0.4-4.5-0.6-9-1.2-13.5c-0.4-3-1.4-6-2.1-8.9c-0.6-2.5-1.2-5-1.6-7.6c-0.4-2.4-0.5-4.8-0.8-7.2
	c-0.2-2.5-0.5-5.1-0.8-7.7c-0.3-3-0.5-6-0.8-9c-0.4-4.5-0.9-8.9-1.3-13.4c-0.6-7-1.2-14-1.6-20.9c-0.4-6.9-0.7-13.8-1-20.7
	c-0.3-5.2-0.5-10.3-0.6-15.6c-0.3-9.5-0.5-19-0.7-28.6c-0.1-6.8-0.3-13.5-0.2-20.3c0-7.7,0.3-15.5,0.4-23.2
	c0.1-4.1,0.1-8.2,0.2-12.3c0.4-10.4,0.8-20.8,1.3-31.1c0.4-8.4,0.8-16.9,1.3-25.3c0.5-8.6,1.2-17.2,1.9-25.9c0.2-2.7,0.8-5.3,1.1-8
	c0.4-3.1,0.5-6.1,0.8-9.1c0.7-6,1.3-12,2.1-18c0.6-4.4,1.2-8.7,1.8-13c0.8-5.9,1.8-11.8,2.6-17.7c0-0.2,0.1-0.3,0.2-0.4
	c-0.9-3.8-2.3-10.1-2.9-13.3c-0.9-4.8,0.5-11.5,2.8-28.1c2.3-16.6,5.8-29.1,8.1-37.6c2.3-8.5,13.4-45.5,15.5-54.1s11-37.9,14.1-47.9
	c3.1-9.9,2.3-13.2,2.2-14.9c0-0.7-0.1-1.7-0.2-2.5c-2.9-2.5-6.4-3.5-9.9-4.8c-2.8-1-5.7-2.1-8.4-3.2c-2.4-1-4.9-2.1-7.2-3.3
	c-2.2-1.1-4.3-2.5-6.6-3.6c-3.2-1.5-6.4-2.9-9.7-4.2c-0.8-0.4-1.8-0.3-2.7-0.5c-1.9-0.6-3.8-1.3-5.8-1.8c-2.4-0.6-4.9-1-7.4-1.6
	c-2.2-0.6-4.5-1.2-6.7-1.9c-3.2-0.9-6.4-1.6-9.5-2.5c-2.5-0.8-4.9-1.8-7.4-2.6c-2.7-0.9-5.5-1.8-8.3-2.8c-3.3-1.2-6.5-2.6-9.7-3.8
	c-3.7-1.4-7.5-2.6-11.2-4.1c-3.5-1.3-7-2.9-10.4-4.2c-2.6-1-5.2-1.8-7.8-2.8c-0.9-0.4-1.9-0.9-2.3-1.7c-1-1.9-2.9-2.5-4.5-3.6
	c-1.8-1.1-3.5-2.2-5.2-3.4c-1-0.8-2-1.5-2.9-2.4c-0.6-0.6-1-1.2-1.4-1.9c-1.8-3.7-4.5-6.9-7.7-9.4c-1.9-1.5-4.5-2.3-6.9-2.9
	c-5.8-1.4-11.7-2.7-17.5-3.8c-6.4-1.2-12.8-2.3-19.3-2.5c-2.5-0.1-4.9-0.4-7.4-0.6c-0.9,0-1.7,0-2.6,0c-0.2,0.1-0.4,0.2-0.6,0.2
	c-5.4,0-10.8,0.1-16.2,0.1c-0.5,0-0.9-0.1-1.4-0.2c-0.3,0-0.7,0-1,0c-0.5,0.1-1,0.3-1.6,0.3c-6.1,0.5-12.1,0.7-18.2,1.4
	c-2.8,0.3-5.6,1.1-8.5,1.7c-5.2,1-10.5,1.9-15.7,2.9c-4.4,0.9-8,3.1-10.6,6.8c-1.5,2.1-2.7,4.5-4.1,6.6c-0.5,0.7-1.1,1.3-1.8,1.7
	c-1.7,1.1-3.5,2.1-5.2,3.2c-1.9,1.2-4,2.1-5.3,3.7c-1.4,1.6-3,2.5-4.8,3.2c-1.9,0.8-3.8,1.5-5.8,2.2c-4.5,1.8-9.1,3.5-13.6,5.2
	c-4.4,1.7-8.9,3.2-13.4,4.8c-4.3,1.6-8.7,3.1-13,4.7c-2.8,1-5.5,2-8.3,2.8c-4.4,1.3-8.9,2.4-13.3,3.6c-2.1,0.6-4.2,1.3-6.4,1.8
	c-1,0.3-2.1,0.2-3.2,0.5c-3.4,1-6.9,1.9-10.3,3.3c-3.5,1.4-7,3.2-10.4,4.9c-2.7,1.4-5.2,3-8,4.2c-3.9,1.7-8,3-11.9,4.6
	c-3,1.2-6,2.4-8.7,4.1c-1.6,0.9-2.8,2.5-4.1,3.8c0.8,5.5,2.9,13,4.5,18.5c2.3,7.5,5.4,16.8,12.3,41.3S98,190.3,101.4,201
	s5.5,27.3,7.5,38.6s0,37.3,0,37.3c0.4,0.8,0.6,1.2,0.8,1.8c0.3-0.2,0.6-0.3,1-0.5c0.1,0.2,0.2,0.4,0.3,0.6
	c1.2,7.7,2.6,15.5,3.6,23.2c1.2,8.8,2.4,17.7,3.3,26.5c1.2,11.6,2.4,23.2,3.4,34.8c0.8,9,1.2,18.1,1.8,27.2c0.4,6.4,0.7,12.9,1,19.3
	c0.4,7.7,0.8,15.4,0.9,23c0.3,14.1,0.6,28.1,0.6,42.2c0,12.9-0.4,25.9-0.7,38.8c-0.1,5.3-0.3,10.7-0.6,16c-0.4,8-0.7,16.1-1.3,24.1
	c-0.6,7.7-1.5,15.4-2.2,23.1c-0.5,5.2-0.8,10.3-1.3,15.5c-0.3,2.9-0.7,5.7-1,8.5c-0.1,1-0.1,2.1-0.3,3.1c-0.4,2.5-0.7,5-1.2,7.5
	c-0.3,1.3-0.8,2.5-1.1,3.8c-0.6,2.6-1.2,5.1-1.6,7.7c-0.5,3.2-0.7,6.3-1,9.5c-0.1,1.3-0.1,2.6-0.3,3.9c-0.3,3.3-0.7,6.5-1,9.8
	c-0.4,4.6-0.7,9.2-1.1,13.8c-0.5,4.5-0.9,9-1.6,13.6c-0.5,3.4-1.2,6.7-1.8,10c-0.1,0.7-0.4,1.6-0.1,2.2c0.5,1-0.3,1.5-0.6,2.2
	c-0.7,2-1.2,4.1-1.7,6.1c-0.7,2.5-1,5.1-1.8,7.6c-0.9,3-2,6-3,8.9c-0.3,0.9-0.1,1.5,1,1.7c3.7,0.4,7.4,1,11,1.2
	c7.6,0.5,15.1,0.7,22.7,1c6.7,0.3,13.4,0.8,20.1,0.9c23.4,0.4,46.7,0.8,70.1,1c45.2,0.2,90.5,0.3,135.7,0.4c14,0,28,0.2,42,0
	c10.3-0.2,20.5-0.8,30.8-1.2c5-0.2,10.1-0.2,15.1-0.4c6.3-0.3,12.5-0.8,18.7-1.4c2.1-0.2,2.2-0.7,1.1-2.4
	C468.3,710.8,468,709.6,468.1,708.7z"/>
</svg>
